<svg id="Capa_1" data-name="Capa 1" xmlns="http://www.w3.org/2000/svg" viewBox="0 0 141.68 141.68"><defs><style>.cls-1,.cls-3{fill:none;stroke:#fff;stroke-miterlimit:10;}.cls-1{stroke-width:0.5px;}.cls-2{font-size:27.03px;fill:#fff;font-family:Aver-BoldItalic, Aver;font-weight:700;font-style:italic;}.cls-3{stroke-width:0.75px;}</style></defs><title>Lweb</title><circle cx="70.84" cy="70.84" r="70.84"/><path class="cls-1" d="M147,84.27q-5-.58-9.91-1a2.19,2.19,0,0,1-.62-.14h-.09a6.75,6.75,0,0,1-1.57-.19v0c-1.63-.16-3.14-.3-4.65-.46-6.64-.7-13.27-1.41-19.92-2.09a1,1,0,0,1-1.07-1A23.16,23.16,0,0,0,105,70.26a1.09,1.09,0,0,1,.06-1.63q5.87-7.17,11.68-14.38c.18-.23.38-.46.55-.7s.75-.73.29-1.21-.86,0-1.21.26l-9,7.27c-2.12,1.72-4.26,3.43-6.37,5.17a.74.74,0,0,1-1.12,0A18.06,18.06,0,0,0,98.26,64c0-.15,0-.21,0-.26L109,44.54c.61,1,1.13,2,1.73,2.92a3.7,3.7,0,0,0,.87.73c.23-.33.59-.64.66-1,.21-1.11.33-2.24.5-3.54a8.25,8.25,0,0,1,.25-1.8c0-.06,0-.16,0-.22a33,33,0,0,1,.78-4.06c.57-2.16,1.27-4.28,1.87-6.43.08-.29-.14-.67-.22-1a2.86,2.86,0,0,0-.89.36c-.6.6-1.12,1.29-1.71,1.9-1.85,1.93-3.71,3.84-5.57,5.77a1.28,1.28,0,0,1-.23.19,3.51,3.51,0,0,0-.53.4,7.33,7.33,0,0,1-1,.79h0c-1,.81-1.94,1.55-2.82,2.36a3,3,0,0,0-.48,1.1,4,4,0,0,0,1.06.38c1.06,0,2.12,0,3.33,0L96,62.59c-.91-.37-1.79-.76-2.7-1.07s-2-.61-3-.85a.72.72,0,0,1-.65-.76c-.58-5.67-1.19-11.35-1.79-17-.26-2.54-.54-5.08-.8-7.61h.06a7.21,7.21,0,0,1-.25-1.62v-.24a1.16,1.16,0,0,1,0-.29c-.33-3.4-.7-6.79-1.07-10.18,0-.46,0-1.09-.67-1-.26,0-.59.6-.63,1C84,26.26,83.63,29.62,83.32,33a1.75,1.75,0,0,1-.14.55,5.38,5.38,0,0,1-.13,1.14h0v.37h0l-.92,8.8C81.6,49.15,81,54.44,80.49,59.74a.91.91,0,0,1-.85,1A24,24,0,0,0,70.17,65c-.19.14-.39.26-.62.41l-7.35-6c-2.88-2.33-5.76-4.67-8.66-7a1.19,1.19,0,0,0-1-.2c-.5.36-.1.78.18,1.12l6.54,8.1,6.37,7.87c-.17.25-.32.49-.49.72a23.87,23.87,0,0,0-4.24,9.32,1,1,0,0,1-1,.91C52,81.18,44.14,82,36.3,82.84c-.31,0-.63,0-1.1.07v0a6.43,6.43,0,0,1-1.31.16v0l-1,.14-9.91,1c-.44,0-1,0-.92.65,0,.25.55.56.87.61,2.07.26,4.15.46,6.23.68l4.22.46h0a6.56,6.56,0,0,1,1.73.22v0l6.32.65c6,.63,12,1.29,18,1.88a1.72,1.72,0,0,1,1.53,1.34,22.55,22.55,0,0,0,4.14,8.88,1,1,0,0,1-.06,1.49c-4.11,5-8.18,10.1-12.27,15.15,0,0,0,0,0,.07-.09.39-.17.77-.26,1.16a3.13,3.13,0,0,0,1.14-.23,25.35,25.35,0,0,0,2-1.59l14-11.3,2.32,1.61-.51,1c-2.7,4.85-5.39,9.72-8.1,14.56a2.37,2.37,0,0,1-.82.87c-1.77,1.06-3.57,2-5.34,3.1a1.09,1.09,0,0,1-.53.17l-.21.1a3.76,3.76,0,0,1-.76.42,4,4,0,0,1-.44.27A5.69,5.69,0,0,0,54,127.58q-2.48,4.32-4.84,8.71a1.08,1.08,0,0,0-.08.93,1.2,1.2,0,0,0,.95.13c1.08-.27,2.15-.61,3.22-.91l3.84-1.08c.69,2.4,1.33,4.69,2,7a3.57,3.57,0,0,0,.62.87,3.28,3.28,0,0,0,.81-.7c1-1.81,2.09-3.61,3-5.47.79-1.57,2.14-2.89,2.07-4.82h0a4.53,4.53,0,0,1-.09-.74,2.41,2.41,0,0,1,0-.38V131a1.5,1.5,0,0,1,0-.3v0a.49.49,0,0,1,0-.12,1.36,1.36,0,0,1-.15-.63c0-2-.13-3.93-.17-5.9a2.14,2.14,0,0,1,.2-1.1q4.28-7.75,8.59-15.49c0-.07.11-.14.08-.11,2,.61,3.92,1.18,5.84,1.81a1,1,0,0,1,.49.67c.49,4.41,1,8.83,1.42,13.24.4,3.8.8,7.6,1.22,11.65H83a18.13,18.13,0,0,1,.21,1.56,1.7,1.7,0,0,1,.06.35c.22,2.28.47,4.56.71,6.85.13,1.22.23,2.46.42,3.68,0,.26.4.47.61.71.21-.25.43-.48.62-.74.06-.08,0-.23,0-.34.34-3.25.73-6.49,1-9.74,0-.11,0-.2,0-.29a3.28,3.28,0,0,1,.13-.94v0a3.06,3.06,0,0,1,.14-1.09h0c.19-1.88.35-3.59.53-5.3q1-9.66,2-19.31c.07-.61.23-.9.89-1a24.5,24.5,0,0,0,10-4.75l5.63,4.55c3.46,2.79,6.9,5.59,10.38,8.36.27.21.75.16,1.14.24-.08-.39,0-.87-.26-1.14Q111.19,108.64,105,101a.94.94,0,0,1,0-1.41,23.27,23.27,0,0,0,4.23-9.23c.14-.6.35-.89,1-1q12-1.23,23.95-2.51c.18,0,.35,0,.72,0v0a3.83,3.83,0,0,1,1.31-.15v-.07l1.34-.17c3.19-.34,6.38-.66,9.56-1,.35,0,.65-.42,1-.64C147.7,84.66,147.38,84.31,147,84.27Z" transform="translate(-14.2 -14.07)"/><text class="cls-2" transform="translate(57.75 82.73)">W</text><circle class="cls-3" cx="70.6" cy="71.59" r="20.07"/></svg>